<?xml version="1.0" encoding="UTF-8" standalone="no"?>
<!DOCTYPE svg PUBLIC "-//W3C//DTD SVG 1.1//EN" "http://www.w3.org/Graphics/SVG/1.1/DTD/svg11.dtd">
<svg width="100%" height="100%" viewBox="0 0 117 117" version="1.1" xmlns="http://www.w3.org/2000/svg" xmlns:xlink="http://www.w3.org/1999/xlink" xml:space="preserve" xmlns:serif="http://www.serif.com/" style="fill-rule:evenodd;clip-rule:evenodd;stroke-linejoin:round;stroke-miterlimit:2;">
    <g transform="matrix(1.08696,0,0,1.08696,-5.08696,-10.5217)">
        <path d="M67.956,30.321C61.775,28.56 55.225,28.56 49.044,30.321L49.27,39.32C46.702,40.3 44.307,41.683 42.174,43.417L34.495,38.721C29.878,43.193 26.603,48.866 25.038,55.1L32.944,59.403C32.509,62.117 32.509,64.883 32.944,67.597L25.038,71.9C26.603,78.134 29.878,83.807 34.495,88.279L42.174,83.583C44.307,85.317 46.702,86.7 49.27,87.68L49.044,96.679C55.225,98.44 61.775,98.44 67.956,96.679L67.73,87.68C70.298,86.7 72.693,85.317 74.826,83.583L82.505,88.279C87.122,83.807 90.397,78.134 91.962,71.9L84.056,67.597C84.491,64.883 84.491,62.117 84.056,59.403L91.962,55.1C90.397,48.866 87.122,43.193 82.505,38.721L74.826,43.417C72.693,41.683 70.298,40.3 67.73,39.32L67.956,30.321ZM58.5,53.397C64.076,53.397 68.603,57.924 68.603,63.5C68.603,69.076 64.076,73.603 58.5,73.603C52.924,73.603 48.397,69.076 48.397,63.5C48.397,57.924 52.924,53.397 58.5,53.397Z" style="fill:rgb(50,50,50);"/>
    </g>
</svg>
